<?xml version="1.0" encoding="UTF-8" standalone="no"?>
<!DOCTYPE svg PUBLIC "-//W3C//DTD SVG 1.1//EN" "http://www.w3.org/Graphics/SVG/1.1/DTD/svg11.dtd">
<svg width="100%" height="100%" viewBox="0 0 390 229" version="1.1" xmlns="http://www.w3.org/2000/svg" xmlns:xlink="http://www.w3.org/1999/xlink" xml:space="preserve" xmlns:serif="http://www.serif.com/" style="fill-rule:evenodd;clip-rule:evenodd;stroke-linejoin:round;stroke-miterlimit:2;">
    <g transform="matrix(1,0,0,1,45.0051,-35.974)">
        <g transform="matrix(1,0,0,1,-100,-100)">
            <path d="M347.932,303.844L250,360.385L152.063,303.844L152.063,280.568L148.917,280.568L148.917,305.661L249.214,363.568L250,364.021L351.078,305.661L351.078,280.568L347.932,280.568L347.932,303.844" style="fill:white;fill-rule:nonzero;"/>
        </g>
        <g transform="matrix(1,0,0,1,-100,-100)">
            <path d="M250.781,136.427L250,135.974L148.917,194.339L148.917,219.422L152.063,219.422L152.063,196.156L213.224,160.833L213.224,202.526L286.771,202.526L286.771,160.833L347.932,196.156L347.932,219.422L351.078,219.422L351.078,194.339L250.781,136.427" style="fill:white;fill-rule:nonzero;"/>
        </g>
        <g transform="matrix(1,0,0,1,-100,-100)">
            <path d="M316,283.427L184,283.427L184,281.573L316,281.573L316,283.427" style="fill:white;fill-rule:nonzero;"/>
        </g>
        <g transform="matrix(1,0,0,1,-100,-100)">
            <path d="M277.604,168.089L240.714,168.089C240.599,168.089 240.51,168.177 240.51,168.286L240.51,169.078L222.396,169.078C222.229,169.078 222.13,169.276 222.24,169.406C222.37,169.568 225.458,173.318 227.615,174.76C229.771,176.208 232.729,177.349 235.156,177.672C237.026,177.917 240.755,177.594 242.589,177.62C244.75,177.656 245.813,178.854 245.781,180.755C245.719,184.427 237.87,185.661 237.792,185.677C237.734,185.682 237.682,185.714 237.651,185.766C235.625,188.844 235.74,188.646 235.74,188.734L235.74,191.302C235.74,191.411 235.828,191.5 235.943,191.5C244.51,191.5 244.036,191.51 244.089,191.49C244.13,191.474 248.453,189.974 252.198,189.938C256.318,189.896 259.776,191.469 259.807,191.484C259.875,191.51 259.323,191.5 267.875,191.5C267.984,191.5 268.073,191.417 268.078,191.307C268.182,188.568 268.188,188.724 268.156,188.656L266.938,185.745C266.911,185.682 266.854,185.641 266.786,185.625C266.708,185.609 259,184.073 259.125,180.349C259.208,177.745 260.781,176.245 263.167,175.365C266.714,174.057 272.047,172.766 275.786,172.87C276.083,172.875 276.5,172.896 276.927,172.521C277.198,172.286 277.281,171.932 277.281,171.786L277.281,170L277.604,170C277.714,170 277.807,169.911 277.807,169.802L277.807,168.286C277.807,168.177 277.714,168.089 277.604,168.089" style="fill-rule:nonzero;"/>
        </g>
        <g transform="matrix(1,0,0,1,-100,-100)">
            <path d="M238.818,169.599C237.604,169.948 234.125,170.714 231.417,170.682C229.073,170.62 225.427,170.057 223.276,169.599C223.276,169.599 230.188,170.25 231.781,170.245C233.906,170.234 238.818,169.599 238.818,169.599" style="fill:white;fill-rule:nonzero;"/>
        </g>
        <g transform="matrix(1,0,0,1,-100,-100)">
            <path d="M236.641,188.599C241.661,187.297 242.719,186.307 245.313,183.167C245.313,183.161 245.318,183.167 245.313,183.167C244.87,184.125 243.474,186.156 241.76,187.125C241.172,187.453 240.573,187.693 239.943,187.906C238.141,188.5 236.641,188.604 236.641,188.604L236.641,188.599" style="fill:white;fill-rule:nonzero;"/>
        </g>
        <g transform="matrix(1,0,0,1,-100,-100)">
            <path d="M267.344,188.615C266.089,188.516 263.766,187.635 262.385,186.49C260.594,185.031 259.313,182.536 259.63,182.953C260.422,183.99 261.823,185.625 262.896,186.38C264.031,187.193 265.672,188.052 267.349,188.573C267.375,188.583 267.37,188.62 267.344,188.615" style="fill:white;fill-rule:nonzero;"/>
        </g>
        <g transform="matrix(1,0,0,1,-100,-100)">
            <path d="M244.474,188.083C246.984,184.151 252.536,182.813 256.708,185.339C258.271,186.292 259.302,187.656 259.615,188.318C259.62,188.318 259.615,188.318 259.615,188.318C256.859,184.266 249.578,182.667 244.875,187.677C244.724,187.839 244.5,188.083 244.37,188.26C244.354,188.271 244.458,188.104 244.474,188.083" style="fill:white;fill-rule:nonzero;"/>
        </g>
        <g transform="matrix(1,0,0,1,-100,-100)">
            <path d="M240.714,169.521L276.219,169.781L276.219,169.823L240.714,170.083L240.714,169.521" style="fill:white;fill-rule:nonzero;"/>
        </g>
        <g transform="matrix(1,0,0,1,-100,-100)">
            <path d="M240.901,169.281C240.964,170 240.87,170.844 240.734,175.979L240.693,175.979C240.62,173.349 240.552,171.365 240.469,169.281L240.901,169.281" style="fill:white;fill-rule:nonzero;"/>
        </g>
        <g transform="matrix(1,0,0,1,-100,-100)">
            <path d="M239.49,169.281L239.271,175.979L239.229,175.979L239.01,169.281L239.49,169.281" style="fill:white;fill-rule:nonzero;"/>
        </g>
        <g transform="matrix(1,0,0,1,-100,-100)">
            <path d="M259.87,190.922C259.76,188.531 259.776,188.786 259.766,188.609C259.964,188.615 267.047,188.714 267.25,188.714L267.25,188.755L259.891,188.854L260.01,188.734L259.911,190.922L259.87,190.922" style="fill:white;fill-rule:nonzero;"/>
        </g>
        <g transform="matrix(1,0,0,1,-100,-100)">
            <path d="M236.755,188.714C236.953,188.714 243.953,188.615 244.146,188.609C244.141,188.818 244.052,190.557 244.042,190.797L244,190.797L243.901,188.734L244.021,188.854L236.755,188.755L236.755,188.714" style="fill:white;fill-rule:nonzero;"/>
        </g>
        <g transform="matrix(1,0,0,1,-100,-100)">
            <path d="M238.839,346.073C237.531,345.625 237.385,345.495 237.104,344.552C236.844,343.661 236.844,343.542 237.104,343.484C237.255,343.453 238.818,341.88 241.859,338.688C244.349,336.073 246.708,333.609 247.099,333.208C247.63,332.667 247.786,332.453 247.729,332.354C247.568,332.068 240.771,324.938 240.599,324.875C240.531,324.849 240.354,324.958 240.203,325.115C239.859,325.479 238.172,327.729 237.151,329.177C236.724,329.792 236.323,330.286 236.26,330.281C236.203,330.276 235.307,329.594 234.271,328.771L232.385,327.271L232.635,327.047C232.776,326.927 233.286,326.245 233.771,325.536C235.182,323.474 236.729,321.464 237.5,320.688C238.547,319.646 244.411,315.318 244.781,315.318C244.875,315.318 245.406,315.932 246.161,316.911C247,318 247.464,318.536 247.641,318.599C247.776,318.651 247.88,318.729 247.859,318.776C247.844,318.823 246.932,319.536 245.828,320.365C244.729,321.193 243.536,322.135 243.182,322.464C242.26,323.318 242.219,323.219 244.422,325.427C246.635,327.646 252.151,332.984 257.625,338.203L262.349,342.703C262.75,343.094 263.052,343.307 263.182,343.307C263.38,343.307 263.385,343.328 263.328,343.771C263.229,344.51 262.922,345.182 262.568,345.417C262.24,345.635 261.604,345.839 260.958,345.932L260.552,345.984L255.266,340.333C252.359,337.224 249.953,334.693 249.922,334.708C249.885,334.719 247.688,337.193 245.031,340.198C242.375,343.203 240.052,345.807 239.875,345.99L239.552,346.313L238.839,346.073ZM250.865,331.375L249.802,330.37L253.005,327.01C255.714,324.177 256.214,323.615 256.214,323.396C256.214,323.177 255.911,322.859 254.005,321.083C252.786,319.953 251.818,318.995 251.844,318.953C251.87,318.906 251.974,318.87 252.073,318.87C252.188,318.87 252.854,318.302 253.844,317.359C254.714,316.531 255.474,315.849 255.526,315.849C255.578,315.849 256.526,316.729 257.63,317.807C259.729,319.844 259.875,319.948 260.203,319.583C260.292,319.484 260.427,319.406 260.505,319.406C260.583,319.406 260.927,319.646 261.271,319.938C261.667,320.271 261.99,320.474 262.156,320.49L262.422,320.516L262.125,320.854C261.958,321.036 261.813,321.307 261.797,321.448C261.771,321.677 261.849,321.781 262.49,322.333C262.885,322.677 263.255,322.958 263.313,322.958C263.401,322.964 267.37,330.604 267.318,330.677C267.307,330.693 265.781,329.896 263.927,328.911L260.563,327.12L259.536,326.104C258.974,325.547 258.484,325.094 258.453,325.094C258.422,325.094 256.948,326.729 255.177,328.734C253.401,330.74 251.948,332.375 251.938,332.375C251.932,332.375 251.448,331.927 250.865,331.375Z" style="fill:white;fill-rule:nonzero;"/>
        </g>
        <g transform="matrix(1,0,0,1,-100,-100)">
            <g transform="matrix(1,0,0,1,54.4949,263.314)">
                <g>
                    <path d="M32.938,-21.708L30.896,-21.458L25.896,0L21.292,0L16.771,-16.292L16.667,-16.292L12.146,0L7.542,0L2.5,-21.458L0.5,-21.708L0.5,-24.687L9.583,-24.687L9.583,-21.708L7.333,-21.312L10.167,-7.792L10.25,-7.771L14.896,-24.687L18.542,-24.687L23.208,-7.771L23.292,-7.792L26.125,-21.312L23.854,-21.708L23.854,-24.687L32.938,-24.687L32.938,-21.708Z" style="fill:white;fill-rule:nonzero;"/>
                </g>
            </g>
        </g>
        <g transform="matrix(1,0,0,1,-100,-100)">
            <g transform="matrix(1,0,0,1,92.8213,263.314)">
                <g>
                    <path d="M16.896,-10.854L8.521,-10.854L8.521,-3.792L16.5,-3.792L16.729,-6.75L20.479,-6.75L20.479,0L0.958,0L0.958,-2.958L3.583,-3.479L3.583,-21.187L0.958,-21.708L0.958,-24.687L20.458,-24.687L20.458,-17.917L16.646,-17.917L16.438,-20.875L8.521,-20.875L8.521,-14.667L16.896,-14.667L16.896,-10.854Z" style="fill:white;fill-rule:nonzero;"/>
                </g>
            </g>
        </g>
        <g transform="matrix(1,0,0,1,-100,-100)">
            <g transform="matrix(1,0,0,1,119.891,263.314)">
                <g>
                    <path d="M19.708,-16.812L16,-16.812L15.354,-20.187C14.922,-20.464 14.292,-20.698 13.458,-20.896C12.635,-21.104 11.76,-21.208 10.833,-21.208C9.469,-21.208 8.422,-20.922 7.688,-20.354C6.948,-19.781 6.583,-19.047 6.583,-18.146C6.583,-17.312 6.964,-16.625 7.729,-16.083C8.505,-15.542 9.844,-14.969 11.75,-14.375C14.469,-13.625 16.531,-12.625 17.938,-11.375C19.354,-10.135 20.063,-8.505 20.063,-6.479C20.063,-4.365 19.219,-2.698 17.542,-1.479C15.875,-0.255 13.672,0.354 10.938,0.354C8.979,0.354 7.208,0.047 5.625,-0.562C4.052,-1.187 2.74,-2.047 1.688,-3.146L1.688,-8.312L5.521,-8.312L6.063,-4.792C6.547,-4.385 7.214,-4.052 8.063,-3.792C8.922,-3.526 9.88,-3.396 10.938,-3.396C12.297,-3.396 13.323,-3.672 14.021,-4.229C14.729,-4.781 15.083,-5.521 15.083,-6.437C15.083,-7.396 14.75,-8.156 14.083,-8.729C13.417,-9.312 12.234,-9.854 10.542,-10.354C7.609,-11.198 5.396,-12.208 3.896,-13.375C2.396,-14.542 1.646,-16.135 1.646,-18.167C1.646,-20.167 2.49,-21.797 4.188,-23.062C5.88,-24.339 8.01,-24.99 10.583,-25.021C12.484,-25.021 14.214,-24.729 15.771,-24.146C17.323,-23.573 18.635,-22.812 19.708,-21.854L19.708,-16.812Z" style="fill:white;fill-rule:nonzero;"/>
                </g>
            </g>
        </g>
        <g transform="matrix(1,0,0,1,-100,-100)">
            <g transform="matrix(1,0,0,1,145.842,263.314)">
                <g>
                    <path d="M22.688,-24.687L22.688,-18.104L18.896,-18.104L18.688,-20.875L14.146,-20.875L14.146,-3.479L16.792,-2.958L16.792,0L6.542,0L6.542,-2.958L9.188,-3.479L9.188,-20.875L4.667,-20.875L4.458,-18.104L0.688,-18.104L0.688,-24.687L22.688,-24.687Z" style="fill:white;fill-rule:nonzero;"/>
                </g>
            </g>
        </g>
        <g transform="matrix(1,0,0,1,-100,-100)">
            <g transform="matrix(1,0,0,1,174.082,263.314)">
                <g>
                    <path d="M16.896,-10.854L8.521,-10.854L8.521,-3.792L16.5,-3.792L16.729,-6.75L20.479,-6.75L20.479,0L0.958,0L0.958,-2.958L3.583,-3.479L3.583,-21.187L0.958,-21.708L0.958,-24.687L20.458,-24.687L20.458,-17.917L16.646,-17.917L16.438,-20.875L8.521,-20.875L8.521,-14.667L16.896,-14.667L16.896,-10.854Z" style="fill:white;fill-rule:nonzero;"/>
                </g>
            </g>
        </g>
        <g transform="matrix(1,0,0,1,-100,-100)">
            <g transform="matrix(1,0,0,1,201.152,263.314)">
                <g>
                    <path d="M12.042,-24.687C14.844,-24.687 17.042,-24.042 18.625,-22.75C20.219,-21.469 21.021,-19.708 21.021,-17.458C21.021,-16.208 20.688,-15.125 20.021,-14.208C19.354,-13.292 18.375,-12.547 17.083,-11.979C18.542,-11.562 19.589,-10.844 20.229,-9.833C20.865,-8.833 21.188,-7.594 21.188,-6.125L21.188,-4.875C21.188,-4.333 21.292,-3.906 21.5,-3.604C21.719,-3.297 22.083,-3.115 22.583,-3.062L23.208,-2.979L23.208,0L20.646,0C19.021,0 17.88,-0.427 17.229,-1.292C16.573,-2.167 16.25,-3.297 16.25,-4.687L16.25,-6.083C16.25,-7.276 15.927,-8.214 15.292,-8.896C14.651,-9.589 13.75,-9.948 12.583,-9.979L8.521,-9.979L8.521,-3.479L11.167,-2.958L11.167,0L0.958,0L0.958,-2.958L3.583,-3.479L3.583,-21.187L0.958,-21.708L0.958,-24.687L12.042,-24.687ZM8.521,-13.812L11.958,-13.812C13.333,-13.812 14.359,-14.104 15.042,-14.687C15.734,-15.271 16.083,-16.115 16.083,-17.229C16.083,-18.339 15.74,-19.219 15.063,-19.875C14.38,-20.542 13.375,-20.875 12.042,-20.875L8.521,-20.875L8.521,-13.812Z" style="fill:white;fill-rule:nonzero;"/>
                </g>
            </g>
        </g>
        <g transform="matrix(1,0,0,1,-100,-100)">
            <g transform="matrix(1,0,0,1,229.917,263.314)">
                <g>
                    <path d="M26.188,-24.687L26.188,-21.708L23.542,-21.187L23.542,0L18.604,0L8.625,-16.625L8.521,-16.604L8.521,-3.479L11.167,-2.958L11.167,0L0.958,0L0.958,-2.958L3.583,-3.479L3.583,-21.187L0.958,-21.708L0.958,-24.687L8.521,-24.687L18.5,-8.062L18.604,-8.083L18.604,-21.187L15.958,-21.708L15.958,-24.687L26.188,-24.687Z" style="fill:white;fill-rule:nonzero;"/>
                </g>
            </g>
        </g>
        <g transform="matrix(1,0,0,1,-100,-100)">
            <g transform="matrix(1,0,0,1,275.038,263.314)">
                <g>
                    <path d="M32.938,-21.708L30.896,-21.458L25.896,0L21.292,0L16.771,-16.292L16.667,-16.292L12.146,0L7.542,0L2.5,-21.458L0.5,-21.708L0.5,-24.687L9.583,-24.687L9.583,-21.708L7.333,-21.312L10.167,-7.792L10.25,-7.771L14.896,-24.687L18.542,-24.687L23.208,-7.771L23.292,-7.792L26.125,-21.312L23.854,-21.708L23.854,-24.687L32.938,-24.687L32.938,-21.708Z" style="fill:white;fill-rule:nonzero;"/>
                </g>
            </g>
        </g>
        <g transform="matrix(1,0,0,1,-100,-100)">
            <g transform="matrix(1,0,0,1,313.364,263.314)">
                <g>
                    <path d="M16.896,-10.854L8.521,-10.854L8.521,-3.792L16.5,-3.792L16.729,-6.75L20.479,-6.75L20.479,0L0.958,0L0.958,-2.958L3.583,-3.479L3.583,-21.187L0.958,-21.708L0.958,-24.687L20.458,-24.687L20.458,-17.917L16.646,-17.917L16.438,-20.875L8.521,-20.875L8.521,-14.667L16.896,-14.667L16.896,-10.854Z" style="fill:white;fill-rule:nonzero;"/>
                </g>
            </g>
        </g>
        <g transform="matrix(1,0,0,1,-100,-100)">
            <g transform="matrix(1,0,0,1,340.434,263.314)">
                <g>
                    <path d="M0.958,0L0.958,-2.958L3.583,-3.479L3.583,-21.187L0.958,-21.708L0.958,-24.687L11.167,-24.687L11.167,-21.708L8.521,-21.187L8.521,-3.792L15.5,-3.792L15.729,-6.896L19.521,-6.896L19.521,0L0.958,0Z" style="fill:white;fill-rule:nonzero;"/>
                </g>
            </g>
        </g>
        <g transform="matrix(1,0,0,1,-100,-100)">
            <g transform="matrix(1,0,0,1,365.673,263.314)">
                <g>
                    <path d="M12.063,-24.687C15.073,-24.687 17.563,-23.719 19.521,-21.792C21.479,-19.875 22.458,-17.401 22.458,-14.375L22.458,-10.292C22.458,-7.26 21.479,-4.792 19.521,-2.875C17.563,-0.958 15.073,0 12.063,0L0.958,0L0.958,-2.958L3.583,-3.479L3.583,-21.187L0.958,-21.708L0.958,-24.687L12.063,-24.687ZM8.521,-20.875L8.521,-3.792L11.813,-3.792C13.573,-3.792 14.958,-4.385 15.958,-5.583C16.969,-6.792 17.479,-8.359 17.479,-10.292L17.479,-14.417C17.479,-16.318 16.969,-17.865 15.958,-19.062C14.958,-20.271 13.573,-20.875 11.813,-20.875L8.521,-20.875Z" style="fill:white;fill-rule:nonzero;"/>
                </g>
            </g>
        </g>
        <g transform="matrix(1,0,0,1,-100,-100)">
            <g transform="matrix(1,0,0,1,394.489,263.314)">
                <g>
                    <path d="M16.896,-10.854L8.521,-10.854L8.521,-3.792L16.5,-3.792L16.729,-6.75L20.479,-6.75L20.479,0L0.958,0L0.958,-2.958L3.583,-3.479L3.583,-21.187L0.958,-21.708L0.958,-24.687L20.458,-24.687L20.458,-17.917L16.646,-17.917L16.438,-20.875L8.521,-20.875L8.521,-14.667L16.896,-14.667L16.896,-10.854Z" style="fill:white;fill-rule:nonzero;"/>
                </g>
            </g>
        </g>
        <g transform="matrix(1,0,0,1,-100,-100)">
            <g transform="matrix(1,0,0,1,421.559,263.314)">
                <g>
                    <path d="M12.063,-24.687C15.073,-24.687 17.563,-23.719 19.521,-21.792C21.479,-19.875 22.458,-17.401 22.458,-14.375L22.458,-10.292C22.458,-7.26 21.479,-4.792 19.521,-2.875C17.563,-0.958 15.073,0 12.063,0L0.958,0L0.958,-2.958L3.583,-3.479L3.583,-21.187L0.958,-21.708L0.958,-24.687L12.063,-24.687ZM8.521,-20.875L8.521,-3.792L11.813,-3.792C13.573,-3.792 14.958,-4.385 15.958,-5.583C16.969,-6.792 17.479,-8.359 17.479,-10.292L17.479,-14.417C17.479,-16.318 16.969,-17.865 15.958,-19.062C14.958,-20.271 13.573,-20.875 11.813,-20.875L8.521,-20.875Z" style="fill:white;fill-rule:nonzero;"/>
                </g>
            </g>
        </g>
        <g transform="matrix(1,0,0,1,-100,-100)">
            <g transform="matrix(1,0,0,1,191.456,307.145)">
                <g>
                    <path d="M11.667,-14.583L11.667,-12.833L10.104,-12.521L10.104,-4.375C10.104,-2.969 9.646,-1.854 8.729,-1.021C7.813,-0.198 6.651,0.208 5.25,0.208C3.719,0.208 2.51,-0.156 1.625,-0.896C0.734,-1.646 0.313,-2.74 0.354,-4.187L0.375,-4.229L3.208,-4.229C3.208,-3.464 3.385,-2.906 3.75,-2.562C4.125,-2.214 4.625,-2.042 5.25,-2.042C5.792,-2.042 6.25,-2.25 6.625,-2.667C7,-3.083 7.188,-3.651 7.188,-4.375L7.188,-12.521L5.625,-12.833L5.625,-14.583L11.667,-14.583Z" style="fill:white;fill-rule:nonzero;"/>
                </g>
            </g>
        </g>
        <g transform="matrix(1,0,0,1,-100,-100)">
            <g transform="matrix(1,0,0,1,206.565,307.145)">
                <g>
                    <path d="M9.979,-6.417L5.042,-6.417L5.042,-2.25L9.75,-2.25L9.875,-3.979L12.104,-3.979L12.104,0L0.563,0L0.563,-1.75L2.104,-2.062L2.104,-12.521L0.563,-12.833L0.563,-14.583L12.083,-14.583L12.083,-10.583L9.833,-10.583L9.708,-12.333L5.042,-12.333L5.042,-8.667L9.979,-8.667L9.979,-6.417Z" style="fill:white;fill-rule:nonzero;"/>
                </g>
            </g>
        </g>
        <g transform="matrix(1,0,0,1,-100,-100)">
            <g transform="matrix(1,0,0,1,222.836,307.145)">
                <g>
                    <path d="M19.458,-12.833L18.25,-12.667L15.292,0L12.583,0L9.917,-9.625L9.854,-9.625L7.167,0L4.458,0L1.479,-12.667L0.292,-12.833L0.292,-14.583L5.667,-14.583L5.667,-12.833L4.333,-12.604L6,-4.604L6.063,-4.583L8.792,-14.583L10.958,-14.583L13.708,-4.583L13.771,-4.604L15.438,-12.604L14.104,-12.833L14.104,-14.583L19.458,-14.583L19.458,-12.833Z" style="fill:white;fill-rule:nonzero;"/>
                </g>
            </g>
        </g>
        <g transform="matrix(1,0,0,1,-100,-100)">
            <g transform="matrix(1,0,0,1,245.762,307.145)">
                <g>
                    <path d="M9.979,-6.417L5.042,-6.417L5.042,-2.25L9.75,-2.25L9.875,-3.979L12.104,-3.979L12.104,0L0.563,0L0.563,-1.75L2.104,-2.062L2.104,-12.521L0.563,-12.833L0.563,-14.583L12.083,-14.583L12.083,-10.583L9.833,-10.583L9.708,-12.333L5.042,-12.333L5.042,-8.667L9.979,-8.667L9.979,-6.417Z" style="fill:white;fill-rule:nonzero;"/>
                </g>
            </g>
        </g>
        <g transform="matrix(1,0,0,1,-100,-100)">
            <g transform="matrix(1,0,0,1,262.033,307.145)">
                <g>
                    <path d="M0.563,0L0.563,-1.75L2.104,-2.062L2.104,-12.521L0.563,-12.833L0.563,-14.583L6.604,-14.583L6.604,-12.833L5.042,-12.521L5.042,-2.25L9.167,-2.25L9.292,-4.083L11.542,-4.083L11.542,0L0.563,0Z" style="fill:white;fill-rule:nonzero;"/>
                </g>
            </g>
        </g>
        <g transform="matrix(1,0,0,1,-100,-100)">
            <g transform="matrix(1,0,0,1,277.221,307.145)">
                <g>
                    <path d="M7.104,-14.583C8.771,-14.583 10.068,-14.198 11,-13.437C11.943,-12.687 12.417,-11.646 12.417,-10.312C12.417,-9.573 12.219,-8.937 11.833,-8.396C11.443,-7.854 10.865,-7.417 10.104,-7.083C10.964,-6.833 11.583,-6.406 11.958,-5.812C12.333,-5.229 12.521,-4.5 12.521,-3.625L12.521,-2.875C12.521,-2.552 12.583,-2.302 12.708,-2.125C12.833,-1.943 13.047,-1.839 13.354,-1.812L13.708,-1.771L13.708,0L12.188,0C11.24,0 10.573,-0.255 10.188,-0.771C9.797,-1.281 9.604,-1.948 9.604,-2.771L9.604,-3.604C9.604,-4.312 9.406,-4.865 9.021,-5.271C8.646,-5.672 8.115,-5.88 7.438,-5.896L5.042,-5.896L5.042,-2.062L6.604,-1.75L6.604,0L0.563,0L0.563,-1.75L2.104,-2.062L2.104,-12.521L0.563,-12.833L0.563,-14.583L7.104,-14.583ZM5.042,-8.146L7.063,-8.146C7.88,-8.146 8.49,-8.318 8.896,-8.667C9.297,-9.026 9.5,-9.531 9.5,-10.187C9.5,-10.839 9.297,-11.359 8.896,-11.75C8.49,-12.135 7.896,-12.333 7.104,-12.333L5.042,-12.333L5.042,-8.146Z" style="fill:white;fill-rule:nonzero;"/>
                </g>
            </g>
        </g>
        <g transform="matrix(1,0,0,1,-100,-100)">
            <g transform="matrix(1,0,0,1,294.494,307.145)">
                <g>
                    <path d="M5.875,-12.833L4.688,-12.646L6.958,-7.875L7.021,-7.875L9.271,-12.646L8.104,-12.833L8.104,-14.583L13.625,-14.583L13.625,-12.833L12.375,-12.625L8.417,-5.125L8.417,-2.062L9.979,-1.75L9.979,0L3.938,0L3.938,-1.75L5.5,-2.062L5.5,-5.271L1.583,-12.625L0.354,-12.833L0.354,-14.583L5.875,-14.583L5.875,-12.833Z" style="fill:white;fill-rule:nonzero;"/>
                </g>
            </g>
        </g>
        <g transform="matrix(1,0,0,1,-100,-100)">
            <g transform="matrix(1,0,0,1,166.347,211.769)">
                <g>
                    <path d="M5.396,-3.458L2.729,-3.458L2.729,-1.208L5.271,-1.208L5.333,-2.146L6.542,-2.146L6.542,0L0.313,0L0.313,-0.937L1.146,-1.104L1.146,-6.771L0.313,-6.937L0.313,-7.875L6.521,-7.875L6.521,-5.729L5.313,-5.729L5.25,-6.667L2.729,-6.667L2.729,-4.687L5.396,-4.687L5.396,-3.458Z" style="fill:white;fill-rule:nonzero;"/>
                </g>
            </g>
        </g>
        <g transform="matrix(1,0,0,1,-100,-100)">
            <g transform="matrix(1,0,0,1,175.137,211.769)">
                <g>
                    <path d="M6.292,-5.354L5.104,-5.354L4.896,-6.437C4.755,-6.531 4.552,-6.609 4.292,-6.667C4.026,-6.734 3.75,-6.771 3.458,-6.771C3.026,-6.771 2.693,-6.677 2.458,-6.5C2.219,-6.318 2.104,-6.083 2.104,-5.792C2.104,-5.526 2.219,-5.302 2.458,-5.125C2.708,-4.958 3.135,-4.776 3.75,-4.583C4.625,-4.344 5.281,-4.026 5.729,-3.625C6.172,-3.234 6.396,-2.714 6.396,-2.062C6.396,-1.396 6.125,-0.865 5.583,-0.479C5.052,-0.089 4.359,0.104 3.5,0.104C2.875,0.104 2.302,0.005 1.792,-0.187C1.292,-0.38 0.875,-0.651 0.542,-1L0.542,-2.646L1.771,-2.646L1.938,-1.542C2.089,-1.401 2.297,-1.292 2.563,-1.208C2.839,-1.125 3.151,-1.083 3.5,-1.083C3.927,-1.083 4.255,-1.167 4.479,-1.333C4.698,-1.51 4.813,-1.755 4.813,-2.062C4.813,-2.365 4.698,-2.609 4.479,-2.792C4.271,-2.969 3.901,-3.146 3.375,-3.312C2.427,-3.573 1.714,-3.896 1.229,-4.271C0.755,-4.646 0.521,-5.151 0.521,-5.792C0.521,-6.427 0.792,-6.948 1.333,-7.354C1.875,-7.771 2.552,-7.979 3.375,-7.979C3.984,-7.979 4.531,-7.885 5.021,-7.708C5.521,-7.526 5.943,-7.281 6.292,-6.979L6.292,-5.354Z" style="fill:white;fill-rule:nonzero;"/>
                </g>
            </g>
        </g>
        <g transform="matrix(1,0,0,1,-100,-100)">
            <g transform="matrix(1,0,0,1,183.569,211.769)">
                <g>
                    <path d="M7.25,-7.875L7.25,-5.771L6.021,-5.771L5.958,-6.667L4.521,-6.667L4.521,-1.104L5.354,-0.937L5.354,0L2.083,0L2.083,-0.937L2.938,-1.104L2.938,-6.667L1.479,-6.667L1.417,-5.771L0.208,-5.771L0.208,-7.875L7.25,-7.875Z" style="fill:white;fill-rule:nonzero;"/>
                </g>
            </g>
        </g>
        <g transform="matrix(1,0,0,1,-100,-100)">
            <g transform="matrix(1,0,0,1,192.732,211.769)">
                <g>
                    <path d="M3.854,-7.875C4.813,-7.875 5.604,-7.568 6.229,-6.958C6.854,-6.344 7.167,-5.552 7.167,-4.583L7.167,-3.292C7.167,-2.318 6.854,-1.526 6.229,-0.917C5.604,-0.302 4.813,0 3.854,0L0.313,0L0.313,-0.937L1.146,-1.104L1.146,-6.771L0.313,-6.937L0.313,-7.875L3.854,-7.875ZM2.729,-6.667L2.729,-1.208L3.771,-1.208C4.339,-1.208 4.781,-1.396 5.104,-1.771C5.422,-2.156 5.583,-2.667 5.583,-3.292L5.583,-4.604C5.583,-5.214 5.422,-5.708 5.104,-6.083C4.781,-6.469 4.339,-6.667 3.771,-6.667L2.729,-6.667Z" style="fill:white;fill-rule:nonzero;"/>
                </g>
            </g>
        </g>
        <g transform="matrix(1,0,0,1,-100,-100)">
            <g transform="matrix(1,0,0,1,299.617,211.769)">
                <g>
                    <path d="M0.396,0L0.396,-1.042L2.938,-3.771C3.313,-4.187 3.573,-4.542 3.729,-4.833C3.88,-5.125 3.958,-5.396 3.958,-5.646C3.958,-5.979 3.865,-6.25 3.688,-6.458C3.505,-6.667 3.255,-6.771 2.938,-6.771C2.573,-6.771 2.297,-6.646 2.104,-6.396C1.906,-6.156 1.813,-5.833 1.813,-5.417L0.292,-5.417L0.271,-5.458C0.255,-6.167 0.49,-6.76 0.979,-7.25C1.464,-7.75 2.115,-8 2.938,-8C3.74,-8 4.375,-7.781 4.833,-7.354C5.302,-6.937 5.542,-6.375 5.542,-5.667C5.542,-5.193 5.406,-4.755 5.146,-4.354C4.896,-3.948 4.464,-3.422 3.854,-2.771L2.458,-1.229L2.458,-1.208L4.5,-1.208L4.583,-2L5.771,-2L5.771,0L0.396,0Z" style="fill:white;fill-rule:nonzero;"/>
                </g>
            </g>
        </g>
        <g transform="matrix(1,0,0,1,-100,-100)">
            <g transform="matrix(1,0,0,1,307.453,211.769)">
                <g>
                    <path d="M5.854,-3.062C5.854,-2.021 5.609,-1.229 5.125,-0.687C4.651,-0.156 4.01,0.104 3.208,0.104C2.375,0.104 1.714,-0.156 1.229,-0.687C0.755,-1.229 0.521,-2.021 0.521,-3.062L0.521,-4.812C0.521,-5.839 0.755,-6.625 1.229,-7.167C1.714,-7.719 2.365,-8 3.188,-8C4.005,-8 4.651,-7.719 5.125,-7.167C5.609,-6.625 5.854,-5.839 5.854,-4.812L5.854,-3.062ZM4.271,-4.958C4.271,-5.583 4.172,-6.042 3.979,-6.333C3.797,-6.625 3.531,-6.771 3.188,-6.771C2.823,-6.771 2.552,-6.625 2.375,-6.333C2.193,-6.052 2.104,-5.594 2.104,-4.958L2.104,-2.917C2.104,-2.276 2.193,-1.812 2.375,-1.521C2.568,-1.24 2.844,-1.104 3.208,-1.104C3.552,-1.104 3.818,-1.24 4,-1.521C4.177,-1.812 4.271,-2.276 4.271,-2.917L4.271,-4.958Z" style="fill:white;fill-rule:nonzero;"/>
                </g>
            </g>
        </g>
        <g transform="matrix(1,0,0,1,-100,-100)">
            <g transform="matrix(1,0,0,1,315.496,211.769)">
                <g>
                    <path d="M0.396,0L0.396,-1.042L2.938,-3.771C3.313,-4.187 3.573,-4.542 3.729,-4.833C3.88,-5.125 3.958,-5.396 3.958,-5.646C3.958,-5.979 3.865,-6.25 3.688,-6.458C3.505,-6.667 3.255,-6.771 2.938,-6.771C2.573,-6.771 2.297,-6.646 2.104,-6.396C1.906,-6.156 1.813,-5.833 1.813,-5.417L0.292,-5.417L0.271,-5.458C0.255,-6.167 0.49,-6.76 0.979,-7.25C1.464,-7.75 2.115,-8 2.938,-8C3.74,-8 4.375,-7.781 4.833,-7.354C5.302,-6.937 5.542,-6.375 5.542,-5.667C5.542,-5.193 5.406,-4.755 5.146,-4.354C4.896,-3.948 4.464,-3.422 3.854,-2.771L2.458,-1.229L2.458,-1.208L4.5,-1.208L4.583,-2L5.771,-2L5.771,0L0.396,0Z" style="fill:white;fill-rule:nonzero;"/>
                </g>
            </g>
        </g>
        <g transform="matrix(1,0,0,1,-100,-100)">
            <g transform="matrix(1,0,0,1,323.332,211.769)">
                <g>
                    <path d="M4.521,-6.083L4.375,-6.604L2.25,-6.604L2.021,-4.792C2.172,-4.901 2.354,-4.99 2.563,-5.062C2.771,-5.13 3,-5.167 3.25,-5.167C4,-5.177 4.583,-4.948 5,-4.479C5.417,-4.021 5.625,-3.365 5.625,-2.521C5.625,-1.771 5.396,-1.146 4.938,-0.646C4.479,-0.146 3.818,0.104 2.958,0.104C2.234,0.104 1.615,-0.089 1.104,-0.479C0.589,-0.865 0.339,-1.406 0.354,-2.104L0.375,-2.146L1.896,-2.208C1.896,-1.859 1.99,-1.589 2.188,-1.396C2.38,-1.198 2.635,-1.104 2.958,-1.104C3.333,-1.104 3.604,-1.234 3.771,-1.5C3.948,-1.76 4.042,-2.104 4.042,-2.521C4.042,-2.979 3.943,-3.339 3.75,-3.604C3.568,-3.88 3.297,-4.021 2.938,-4.021C2.63,-4.021 2.396,-3.964 2.229,-3.854C2.073,-3.74 1.964,-3.589 1.896,-3.396L0.5,-3.5L0.958,-7.875L5.479,-7.875L5.479,-6.083L4.521,-6.083Z" style="fill:white;fill-rule:nonzero;"/>
                </g>
            </g>
        </g>
    </g>
</svg>
