<svg version="1.0" preserveAspectRatio="xMidYMid meet" height="500" viewBox="0 0 375 374.999991" zoomAndPan="magnify" width="500" xmlns:xlink="http://www.w3.org/1999/xlink" xmlns="http://www.w3.org/2000/svg"><defs><g></g><clipPath id="11667c52e3"><path clip-rule="nonzero" d="M 111.28125 210 L 263.53125 210 L 263.53125 272.980469 L 111.28125 272.980469 Z M 111.28125 210"></path></clipPath><clipPath id="a12b2038ac"><path clip-rule="nonzero" d="M 111.28125 101.980469 L 263.53125 101.980469 L 263.53125 165 L 111.28125 165 Z M 111.28125 101.980469"></path></clipPath><clipPath id="d1b70bd3a1"><path clip-rule="nonzero" d="M 166.644531 126.066406 L 208.351562 126.066406 L 208.351562 143.3125 L 166.644531 143.3125 Z M 166.644531 126.066406"></path></clipPath><clipPath id="9377285655"><path clip-rule="nonzero" d="M 180 126.0625 L 181 126.0625 L 181 132 L 180 132 Z M 180 126.0625"></path></clipPath><clipPath id="e06fbc2cb5"><path clip-rule="nonzero" d="M 179 126.0625 L 180 126.0625 L 180 132 L 179 132 Z M 179 126.0625"></path></clipPath><clipPath id="e05d386fac"><path clip-rule="nonzero" d="M 194 141 L 201 141 L 201 143.3125 L 194 143.3125 Z M 194 141"></path></clipPath><clipPath id="716907d408"><path clip-rule="nonzero" d="M 177 141 L 184 141 L 184 143.3125 L 177 143.3125 Z M 177 141"></path></clipPath><clipPath id="e7716b770a"><path clip-rule="nonzero" d="M 174.285156 236.488281 L 200.535156 236.488281 L 200.535156 259.738281 L 174.285156 259.738281 Z M 174.285156 236.488281"></path></clipPath></defs><g clip-path="url(#11667c52e3)"><path fill-rule="nonzero" fill-opacity="1" d="M 260.949219 227.882812 L 187.5 270.289062 L 114.046875 227.882812 L 114.046875 210.425781 L 111.6875 210.425781 L 111.6875 229.246094 L 186.910156 272.675781 L 187.5 273.015625 L 263.308594 229.246094 L 263.308594 210.425781 L 260.949219 210.425781 L 260.949219 227.882812" fill="#ffffff"></path></g><g clip-path="url(#a12b2038ac)"><path fill-rule="nonzero" fill-opacity="1" d="M 188.085938 102.320312 L 187.5 101.980469 L 111.6875 145.753906 L 111.6875 164.566406 L 114.046875 164.566406 L 114.046875 147.117188 L 159.917969 120.625 L 159.917969 151.894531 L 215.078125 151.894531 L 215.078125 120.625 L 260.949219 147.117188 L 260.949219 164.566406 L 263.308594 164.566406 L 263.308594 145.753906 L 188.085938 102.320312" fill="#ffffff"></path></g><path fill-rule="nonzero" fill-opacity="1" d="M 237 212.570312 L 138 212.570312 L 138 211.179688 L 237 211.179688 L 237 212.570312" fill="#ffffff"></path><g clip-path="url(#d1b70bd3a1)"><path fill-rule="nonzero" fill-opacity="1" d="M 208.203125 126.066406 L 180.535156 126.066406 C 180.449219 126.066406 180.382812 126.132812 180.382812 126.214844 L 180.382812 126.808594 L 166.796875 126.808594 C 166.671875 126.808594 166.597656 126.957031 166.679688 127.054688 C 166.777344 127.175781 169.09375 129.988281 170.710938 131.070312 C 172.328125 132.15625 174.546875 133.011719 176.367188 133.253906 C 177.769531 133.4375 180.566406 133.195312 181.941406 133.214844 C 183.5625 133.242188 184.359375 134.140625 184.335938 135.566406 C 184.289062 138.320312 178.402344 139.246094 178.34375 139.257812 C 178.300781 139.261719 178.261719 139.285156 178.238281 139.324219 C 176.71875 141.632812 176.804688 141.484375 176.804688 141.550781 L 176.804688 143.476562 C 176.804688 143.558594 176.871094 143.625 176.957031 143.625 C 183.382812 143.625 183.027344 143.632812 183.066406 143.617188 C 183.097656 143.605469 186.339844 142.480469 189.148438 142.453125 C 192.238281 142.421875 194.832031 143.601562 194.855469 143.613281 C 194.90625 143.632812 194.492188 143.625 200.90625 143.625 C 200.988281 143.625 201.054688 143.5625 201.058594 143.480469 C 201.136719 141.425781 201.140625 141.542969 201.117188 141.492188 L 200.203125 139.308594 C 200.183594 139.261719 200.140625 139.230469 200.089844 139.21875 C 200.03125 139.207031 194.25 138.054688 194.34375 135.261719 C 194.40625 133.308594 195.585938 132.183594 197.375 131.523438 C 200.035156 130.542969 204.035156 129.574219 206.839844 129.652344 C 207.0625 129.65625 207.375 129.671875 207.695312 129.390625 C 207.898438 129.214844 207.960938 128.949219 207.960938 128.839844 L 207.960938 127.5 L 208.203125 127.5 C 208.285156 127.5 208.355469 127.433594 208.355469 127.351562 L 208.355469 126.214844 C 208.355469 126.132812 208.285156 126.066406 208.203125 126.066406" fill="#000000"></path></g><path fill-rule="nonzero" fill-opacity="1" d="M 179.113281 127.199219 C 178.203125 127.460938 175.59375 128.035156 173.5625 128.011719 C 171.804688 127.964844 169.070312 127.542969 167.457031 127.199219 C 167.457031 127.199219 172.640625 127.6875 173.835938 127.683594 C 175.429688 127.675781 179.113281 127.199219 179.113281 127.199219" fill="#ffffff"></path><path fill-rule="nonzero" fill-opacity="1" d="M 177.480469 141.449219 C 181.246094 140.472656 182.039062 139.730469 183.984375 137.375 C 183.984375 137.371094 183.988281 137.375 183.984375 137.375 C 183.652344 138.09375 182.605469 139.617188 181.320312 140.34375 C 180.878906 140.589844 180.429688 140.769531 179.957031 140.929688 C 178.605469 141.375 177.480469 141.453125 177.480469 141.453125 C 177.480469 141.453125 177.480469 141.453125 177.480469 141.449219" fill="#ffffff"></path><path fill-rule="nonzero" fill-opacity="1" d="M 200.507812 141.460938 C 199.566406 141.386719 197.824219 140.726562 196.789062 139.867188 C 195.445312 138.773438 194.484375 136.902344 194.722656 137.214844 C 195.316406 137.992188 196.367188 139.21875 197.171875 139.785156 C 198.023438 140.394531 199.253906 141.039062 200.511719 141.429688 C 200.53125 141.4375 200.527344 141.464844 200.507812 141.460938" fill="#ffffff"></path><path fill-rule="nonzero" fill-opacity="1" d="M 183.355469 141.0625 C 185.238281 138.113281 189.402344 137.109375 192.53125 139.003906 C 193.703125 139.71875 194.476562 140.742188 194.710938 141.238281 C 194.714844 141.238281 194.710938 141.238281 194.710938 141.238281 C 192.644531 138.199219 187.183594 137 183.65625 140.757812 C 183.542969 140.878906 183.375 141.0625 183.277344 141.195312 C 183.265625 141.203125 183.34375 141.078125 183.355469 141.0625" fill="#ffffff"></path><path fill-rule="nonzero" fill-opacity="1" d="M 180.535156 127.140625 L 207.164062 127.335938 L 207.164062 127.367188 L 180.535156 127.5625 L 180.535156 127.140625" fill="#ffffff"></path><g clip-path="url(#9377285655)"><path fill-rule="nonzero" fill-opacity="1" d="M 180.675781 126.960938 C 180.722656 127.5 180.652344 128.132812 180.550781 131.984375 L 180.519531 131.984375 C 180.464844 130.011719 180.414062 128.523438 180.351562 126.960938 L 180.675781 126.960938" fill="#ffffff"></path></g><g clip-path="url(#e06fbc2cb5)"><path fill-rule="nonzero" fill-opacity="1" d="M 179.617188 126.960938 L 179.453125 131.984375 L 179.421875 131.984375 L 179.257812 126.960938 L 179.617188 126.960938" fill="#ffffff"></path></g><g clip-path="url(#e05d386fac)"><path fill-rule="nonzero" fill-opacity="1" d="M 194.902344 143.191406 C 194.820312 141.398438 194.832031 141.589844 194.824219 141.457031 C 194.972656 141.460938 200.285156 141.535156 200.4375 141.535156 L 200.4375 141.566406 L 194.917969 141.640625 L 195.007812 141.550781 L 194.933594 143.191406 L 194.902344 143.191406" fill="#ffffff"></path></g><g clip-path="url(#716907d408)"><path fill-rule="nonzero" fill-opacity="1" d="M 177.566406 141.535156 C 177.714844 141.535156 182.964844 141.460938 183.109375 141.457031 C 183.105469 141.613281 183.039062 142.917969 183.03125 143.097656 L 183 143.097656 L 182.925781 141.550781 L 183.015625 141.640625 L 177.566406 141.566406 L 177.566406 141.535156" fill="#ffffff"></path></g><g clip-path="url(#e7716b770a)"><path fill-rule="nonzero" fill-opacity="1" d="M 179.128906 259.554688 C 178.148438 259.21875 178.039062 259.121094 177.828125 258.414062 C 177.632812 257.746094 177.632812 257.65625 177.828125 257.613281 C 177.941406 257.589844 179.113281 256.410156 181.394531 254.015625 C 183.261719 252.054688 185.03125 250.207031 185.324219 249.90625 C 185.722656 249.5 185.839844 249.339844 185.796875 249.265625 C 185.675781 249.050781 180.578125 243.703125 180.449219 243.65625 C 180.398438 243.636719 180.265625 243.71875 180.152344 243.835938 C 179.894531 244.109375 178.628906 245.796875 177.863281 246.882812 C 177.542969 247.34375 177.242188 247.714844 177.195312 247.710938 C 177.152344 247.707031 176.480469 247.195312 175.703125 246.578125 L 174.289062 245.453125 L 174.476562 245.285156 C 174.582031 245.195312 174.964844 244.683594 175.328125 244.152344 C 176.386719 242.605469 177.546875 241.097656 178.125 240.515625 C 178.910156 239.734375 183.308594 236.488281 183.585938 236.488281 C 183.65625 236.488281 184.054688 236.949219 184.621094 237.683594 C 185.25 238.5 185.597656 238.902344 185.730469 238.949219 C 185.832031 238.988281 185.910156 239.046875 185.894531 239.082031 C 185.882812 239.117188 185.199219 239.652344 184.371094 240.273438 C 183.546875 240.894531 182.652344 241.601562 182.386719 241.847656 C 181.695312 242.488281 181.664062 242.414062 183.316406 244.070312 C 184.976562 245.734375 189.113281 249.738281 193.21875 253.652344 L 196.761719 257.027344 C 197.0625 257.320312 197.289062 257.480469 197.386719 257.480469 C 197.535156 257.480469 197.539062 257.496094 197.496094 257.828125 C 197.421875 258.382812 197.191406 258.886719 196.925781 259.0625 C 196.679688 259.226562 196.203125 259.378906 195.71875 259.449219 L 195.414062 259.488281 L 191.449219 255.25 C 189.269531 252.917969 187.464844 251.019531 187.441406 251.03125 C 187.414062 251.039062 185.765625 252.894531 183.773438 255.148438 C 181.78125 257.402344 180.039062 259.355469 179.90625 259.492188 L 179.664062 259.734375 Z M 188.148438 248.53125 L 187.351562 247.777344 L 189.753906 245.257812 C 191.785156 243.132812 192.160156 242.710938 192.160156 242.546875 C 192.160156 242.382812 191.933594 242.144531 190.503906 240.8125 C 189.589844 239.964844 188.863281 239.246094 188.882812 239.214844 C 188.902344 239.179688 188.980469 239.152344 189.054688 239.152344 C 189.140625 239.152344 189.640625 238.726562 190.382812 238.019531 C 191.035156 237.398438 191.605469 236.886719 191.644531 236.886719 C 191.683594 236.886719 192.394531 237.546875 193.222656 238.355469 C 194.796875 239.882812 194.90625 239.960938 195.152344 239.6875 C 195.21875 239.613281 195.320312 239.554688 195.378906 239.554688 C 195.4375 239.554688 195.695312 239.734375 195.953125 239.953125 C 196.25 240.203125 196.492188 240.355469 196.617188 240.367188 L 196.816406 240.386719 L 196.59375 240.640625 C 196.46875 240.777344 196.359375 240.980469 196.347656 241.085938 C 196.328125 241.257812 196.386719 241.335938 196.867188 241.75 C 197.164062 242.007812 197.441406 242.21875 197.484375 242.21875 C 197.550781 242.222656 200.527344 247.953125 200.488281 248.007812 C 200.480469 248.019531 199.335938 247.421875 197.945312 246.683594 L 195.421875 245.339844 L 194.652344 244.578125 C 194.230469 244.160156 193.863281 243.820312 193.839844 243.820312 C 193.816406 243.820312 192.710938 245.046875 191.382812 246.550781 C 190.050781 248.054688 188.960938 249.28125 188.953125 249.28125 C 188.949219 249.28125 188.585938 248.945312 188.148438 248.53125 Z M 188.148438 248.53125" fill="#ffffff"></path></g><g fill-opacity="1" fill="#ffffff"><g transform="translate(40.871168, 197.485797)"><g><path d="M 24.703125 -16.28125 L 23.171875 -16.09375 L 19.421875 0 L 15.96875 0 L 12.578125 -12.21875 L 12.5 -12.21875 L 9.109375 0 L 5.65625 0 L 1.875 -16.09375 L 0.375 -16.28125 L 0.375 -18.515625 L 7.1875 -18.515625 L 7.1875 -16.28125 L 5.5 -15.984375 L 7.625 -5.84375 L 7.6875 -5.828125 L 11.171875 -18.515625 L 13.90625 -18.515625 L 17.40625 -5.828125 L 17.46875 -5.84375 L 19.59375 -15.984375 L 17.890625 -16.28125 L 17.890625 -18.515625 L 24.703125 -18.515625 Z M 24.703125 -16.28125"></path></g></g></g><g fill-opacity="1" fill="#ffffff"><g transform="translate(69.615955, 197.485797)"><g><path d="M 12.671875 -8.140625 L 6.390625 -8.140625 L 6.390625 -2.84375 L 12.375 -2.84375 L 12.546875 -5.0625 L 15.359375 -5.0625 L 15.359375 0 L 0.71875 0 L 0.71875 -2.21875 L 2.6875 -2.609375 L 2.6875 -15.890625 L 0.71875 -16.28125 L 0.71875 -18.515625 L 15.34375 -18.515625 L 15.34375 -13.4375 L 12.484375 -13.4375 L 12.328125 -15.65625 L 6.390625 -15.65625 L 6.390625 -11 L 12.671875 -11 Z M 12.671875 -8.140625"></path></g></g></g><g fill-opacity="1" fill="#ffffff"><g transform="translate(89.91839, 197.485797)"><g><path d="M 14.78125 -12.609375 L 12 -12.609375 L 11.515625 -15.140625 C 11.191406 -15.347656 10.71875 -15.523438 10.09375 -15.671875 C 9.476562 -15.828125 8.820312 -15.90625 8.125 -15.90625 C 7.101562 -15.90625 6.316406 -15.691406 5.765625 -15.265625 C 5.210938 -14.835938 4.9375 -14.285156 4.9375 -13.609375 C 4.9375 -12.984375 5.222656 -12.46875 5.796875 -12.0625 C 6.378906 -11.65625 7.382812 -11.226562 8.8125 -10.78125 C 10.851562 -10.21875 12.398438 -9.46875 13.453125 -8.53125 C 14.515625 -7.601562 15.046875 -6.378906 15.046875 -4.859375 C 15.046875 -3.273438 14.414062 -2.023438 13.15625 -1.109375 C 11.90625 -0.191406 10.253906 0.265625 8.203125 0.265625 C 6.734375 0.265625 5.40625 0.0351562 4.21875 -0.421875 C 3.039062 -0.890625 2.054688 -1.535156 1.265625 -2.359375 L 1.265625 -6.234375 L 4.140625 -6.234375 L 4.546875 -3.59375 C 4.910156 -3.289062 5.410156 -3.039062 6.046875 -2.84375 C 6.691406 -2.644531 7.410156 -2.546875 8.203125 -2.546875 C 9.222656 -2.546875 9.992188 -2.753906 10.515625 -3.171875 C 11.046875 -3.585938 11.3125 -4.140625 11.3125 -4.828125 C 11.3125 -5.546875 11.0625 -6.117188 10.5625 -6.546875 C 10.0625 -6.984375 9.175781 -7.390625 7.90625 -7.765625 C 5.707031 -8.398438 4.046875 -9.15625 2.921875 -10.03125 C 1.796875 -10.90625 1.234375 -12.101562 1.234375 -13.625 C 1.234375 -15.125 1.867188 -16.347656 3.140625 -17.296875 C 4.410156 -18.253906 6.007812 -18.742188 7.9375 -18.765625 C 9.363281 -18.765625 10.660156 -18.546875 11.828125 -18.109375 C 12.992188 -17.679688 13.976562 -17.109375 14.78125 -16.390625 Z M 14.78125 -12.609375"></path></g></g></g><g fill-opacity="1" fill="#ffffff"><g transform="translate(109.381676, 197.485797)"><g><path d="M 17.015625 -18.515625 L 17.015625 -13.578125 L 14.171875 -13.578125 L 14.015625 -15.65625 L 10.609375 -15.65625 L 10.609375 -2.609375 L 12.59375 -2.21875 L 12.59375 0 L 4.90625 0 L 4.90625 -2.21875 L 6.890625 -2.609375 L 6.890625 -15.65625 L 3.5 -15.65625 L 3.34375 -13.578125 L 0.515625 -13.578125 L 0.515625 -18.515625 Z M 17.015625 -18.515625"></path></g></g></g><g fill-opacity="1" fill="#ffffff"><g transform="translate(130.561404, 197.485797)"><g><path d="M 12.671875 -8.140625 L 6.390625 -8.140625 L 6.390625 -2.84375 L 12.375 -2.84375 L 12.546875 -5.0625 L 15.359375 -5.0625 L 15.359375 0 L 0.71875 0 L 0.71875 -2.21875 L 2.6875 -2.609375 L 2.6875 -15.890625 L 0.71875 -16.28125 L 0.71875 -18.515625 L 15.34375 -18.515625 L 15.34375 -13.4375 L 12.484375 -13.4375 L 12.328125 -15.65625 L 6.390625 -15.65625 L 6.390625 -11 L 12.671875 -11 Z M 12.671875 -8.140625"></path></g></g></g><g fill-opacity="1" fill="#ffffff"><g transform="translate(150.86384, 197.485797)"><g><path d="M 9.03125 -18.515625 C 11.132812 -18.515625 12.78125 -18.03125 13.96875 -17.0625 C 15.164062 -16.101562 15.765625 -14.78125 15.765625 -13.09375 C 15.765625 -12.15625 15.515625 -11.34375 15.015625 -10.65625 C 14.515625 -9.96875 13.78125 -9.410156 12.8125 -8.984375 C 13.90625 -8.671875 14.691406 -8.132812 15.171875 -7.375 C 15.648438 -6.625 15.890625 -5.695312 15.890625 -4.59375 L 15.890625 -3.65625 C 15.890625 -3.25 15.96875 -2.929688 16.125 -2.703125 C 16.289062 -2.472656 16.5625 -2.335938 16.9375 -2.296875 L 17.40625 -2.234375 L 17.40625 0 L 15.484375 0 C 14.265625 0 13.410156 -0.320312 12.921875 -0.96875 C 12.429688 -1.625 12.1875 -2.472656 12.1875 -3.515625 L 12.1875 -4.5625 C 12.1875 -5.457031 11.945312 -6.160156 11.46875 -6.671875 C 10.988281 -7.191406 10.3125 -7.460938 9.4375 -7.484375 L 6.390625 -7.484375 L 6.390625 -2.609375 L 8.375 -2.21875 L 8.375 0 L 0.71875 0 L 0.71875 -2.21875 L 2.6875 -2.609375 L 2.6875 -15.890625 L 0.71875 -16.28125 L 0.71875 -18.515625 Z M 6.390625 -10.359375 L 8.96875 -10.359375 C 10 -10.359375 10.769531 -10.578125 11.28125 -11.015625 C 11.800781 -11.453125 12.0625 -12.085938 12.0625 -12.921875 C 12.0625 -13.753906 11.804688 -14.414062 11.296875 -14.90625 C 10.785156 -15.40625 10.03125 -15.65625 9.03125 -15.65625 L 6.390625 -15.65625 Z M 6.390625 -10.359375"></path></g></g></g><g fill-opacity="1" fill="#ffffff"><g transform="translate(172.437714, 197.485797)"><g><path d="M 19.640625 -18.515625 L 19.640625 -16.28125 L 17.65625 -15.890625 L 17.65625 0 L 13.953125 0 L 6.46875 -12.46875 L 6.390625 -12.453125 L 6.390625 -2.609375 L 8.375 -2.21875 L 8.375 0 L 0.71875 0 L 0.71875 -2.21875 L 2.6875 -2.609375 L 2.6875 -15.890625 L 0.71875 -16.28125 L 0.71875 -18.515625 L 6.390625 -18.515625 L 13.875 -6.046875 L 13.953125 -6.0625 L 13.953125 -15.890625 L 11.96875 -16.28125 L 11.96875 -18.515625 Z M 19.640625 -18.515625"></path></g></g></g><g fill-opacity="1" fill="#ffffff"><g transform="translate(196.223891, 197.485797)"><g></g></g></g><g fill-opacity="1" fill="#ffffff"><g transform="translate(206.278532, 197.485797)"><g><path d="M 24.703125 -16.28125 L 23.171875 -16.09375 L 19.421875 0 L 15.96875 0 L 12.578125 -12.21875 L 12.5 -12.21875 L 9.109375 0 L 5.65625 0 L 1.875 -16.09375 L 0.375 -16.28125 L 0.375 -18.515625 L 7.1875 -18.515625 L 7.1875 -16.28125 L 5.5 -15.984375 L 7.625 -5.84375 L 7.6875 -5.828125 L 11.171875 -18.515625 L 13.90625 -18.515625 L 17.40625 -5.828125 L 17.46875 -5.84375 L 19.59375 -15.984375 L 17.890625 -16.28125 L 17.890625 -18.515625 L 24.703125 -18.515625 Z M 24.703125 -16.28125"></path></g></g></g><g fill-opacity="1" fill="#ffffff"><g transform="translate(235.023331, 197.485797)"><g><path d="M 12.671875 -8.140625 L 6.390625 -8.140625 L 6.390625 -2.84375 L 12.375 -2.84375 L 12.546875 -5.0625 L 15.359375 -5.0625 L 15.359375 0 L 0.71875 0 L 0.71875 -2.21875 L 2.6875 -2.609375 L 2.6875 -15.890625 L 0.71875 -16.28125 L 0.71875 -18.515625 L 15.34375 -18.515625 L 15.34375 -13.4375 L 12.484375 -13.4375 L 12.328125 -15.65625 L 6.390625 -15.65625 L 6.390625 -11 L 12.671875 -11 Z M 12.671875 -8.140625"></path></g></g></g><g fill-opacity="1" fill="#ffffff"><g transform="translate(255.325767, 197.485797)"><g><path d="M 0.71875 0 L 0.71875 -2.21875 L 2.6875 -2.609375 L 2.6875 -15.890625 L 0.71875 -16.28125 L 0.71875 -18.515625 L 8.375 -18.515625 L 8.375 -16.28125 L 6.390625 -15.890625 L 6.390625 -2.84375 L 11.625 -2.84375 L 11.796875 -5.171875 L 14.640625 -5.171875 L 14.640625 0 Z M 0.71875 0"></path></g></g></g><g fill-opacity="1" fill="#ffffff"><g transform="translate(274.255048, 197.485797)"><g><path d="M 9.046875 -18.515625 C 11.304688 -18.515625 13.171875 -17.789062 14.640625 -16.34375 C 16.109375 -14.90625 16.84375 -13.050781 16.84375 -10.78125 L 16.84375 -7.71875 C 16.84375 -5.445312 16.109375 -3.59375 14.640625 -2.15625 C 13.171875 -0.71875 11.304688 0 9.046875 0 L 0.71875 0 L 0.71875 -2.21875 L 2.6875 -2.609375 L 2.6875 -15.890625 L 0.71875 -16.28125 L 0.71875 -18.515625 Z M 6.390625 -15.65625 L 6.390625 -2.84375 L 8.859375 -2.84375 C 10.179688 -2.84375 11.21875 -3.289062 11.96875 -4.1875 C 12.726562 -5.09375 13.109375 -6.269531 13.109375 -7.71875 L 13.109375 -10.8125 C 13.109375 -12.238281 12.726562 -13.398438 11.96875 -14.296875 C 11.21875 -15.203125 10.179688 -15.65625 8.859375 -15.65625 Z M 6.390625 -15.65625"></path></g></g></g><g fill-opacity="1" fill="#ffffff"><g transform="translate(295.867077, 197.485797)"><g><path d="M 12.671875 -8.140625 L 6.390625 -8.140625 L 6.390625 -2.84375 L 12.375 -2.84375 L 12.546875 -5.0625 L 15.359375 -5.0625 L 15.359375 0 L 0.71875 0 L 0.71875 -2.21875 L 2.6875 -2.609375 L 2.6875 -15.890625 L 0.71875 -16.28125 L 0.71875 -18.515625 L 15.34375 -18.515625 L 15.34375 -13.4375 L 12.484375 -13.4375 L 12.328125 -15.65625 L 6.390625 -15.65625 L 6.390625 -11 L 12.671875 -11 Z M 12.671875 -8.140625"></path></g></g></g><g fill-opacity="1" fill="#ffffff"><g transform="translate(316.169513, 197.485797)"><g><path d="M 9.046875 -18.515625 C 11.304688 -18.515625 13.171875 -17.789062 14.640625 -16.34375 C 16.109375 -14.90625 16.84375 -13.050781 16.84375 -10.78125 L 16.84375 -7.71875 C 16.84375 -5.445312 16.109375 -3.59375 14.640625 -2.15625 C 13.171875 -0.71875 11.304688 0 9.046875 0 L 0.71875 0 L 0.71875 -2.21875 L 2.6875 -2.609375 L 2.6875 -15.890625 L 0.71875 -16.28125 L 0.71875 -18.515625 Z M 6.390625 -15.65625 L 6.390625 -2.84375 L 8.859375 -2.84375 C 10.179688 -2.84375 11.21875 -3.289062 11.96875 -4.1875 C 12.726562 -5.09375 13.109375 -6.269531 13.109375 -7.71875 L 13.109375 -10.8125 C 13.109375 -12.238281 12.726562 -13.398438 11.96875 -14.296875 C 11.21875 -15.203125 10.179688 -15.65625 8.859375 -15.65625 Z M 6.390625 -15.65625"></path></g></g></g><g fill-opacity="1" fill="#ffffff"><g transform="translate(143.592284, 230.358855)"><g><path d="M 8.75 -10.9375 L 8.75 -9.625 L 7.578125 -9.390625 L 7.578125 -3.28125 C 7.578125 -2.226562 7.234375 -1.390625 6.546875 -0.765625 C 5.859375 -0.148438 4.988281 0.15625 3.9375 0.15625 C 2.789062 0.15625 1.882812 -0.117188 1.21875 -0.671875 C 0.550781 -1.234375 0.234375 -2.054688 0.265625 -3.140625 L 0.28125 -3.171875 L 2.40625 -3.171875 C 2.40625 -2.597656 2.539062 -2.179688 2.8125 -1.921875 C 3.09375 -1.660156 3.46875 -1.53125 3.9375 -1.53125 C 4.34375 -1.53125 4.6875 -1.6875 4.96875 -2 C 5.25 -2.3125 5.390625 -2.738281 5.390625 -3.28125 L 5.390625 -9.390625 L 4.21875 -9.625 L 4.21875 -10.9375 Z M 8.75 -10.9375"></path></g></g></g><g fill-opacity="1" fill="#ffffff"><g transform="translate(154.92366, 230.358855)"><g><path d="M 7.484375 -4.8125 L 3.78125 -4.8125 L 3.78125 -1.6875 L 7.3125 -1.6875 L 7.40625 -2.984375 L 9.078125 -2.984375 L 9.078125 0 L 0.421875 0 L 0.421875 -1.3125 L 1.578125 -1.546875 L 1.578125 -9.390625 L 0.421875 -9.625 L 0.421875 -10.9375 L 9.0625 -10.9375 L 9.0625 -7.9375 L 7.375 -7.9375 L 7.28125 -9.25 L 3.78125 -9.25 L 3.78125 -6.5 L 7.484375 -6.5 Z M 7.484375 -4.8125"></path></g></g></g><g fill-opacity="1" fill="#ffffff"><g transform="translate(167.126942, 230.358855)"><g><path d="M 14.59375 -9.625 L 13.6875 -9.5 L 11.46875 0 L 9.4375 0 L 7.4375 -7.21875 L 7.390625 -7.21875 L 5.375 0 L 3.34375 0 L 1.109375 -9.5 L 0.21875 -9.625 L 0.21875 -10.9375 L 4.25 -10.9375 L 4.25 -9.625 L 3.25 -9.453125 L 4.5 -3.453125 L 4.546875 -3.4375 L 6.59375 -10.9375 L 8.21875 -10.9375 L 10.28125 -3.4375 L 10.328125 -3.453125 L 11.578125 -9.453125 L 10.578125 -9.625 L 10.578125 -10.9375 L 14.59375 -10.9375 Z M 14.59375 -9.625"></path></g></g></g><g fill-opacity="1" fill="#ffffff"><g transform="translate(184.321146, 230.358855)"><g><path d="M 7.484375 -4.8125 L 3.78125 -4.8125 L 3.78125 -1.6875 L 7.3125 -1.6875 L 7.40625 -2.984375 L 9.078125 -2.984375 L 9.078125 0 L 0.421875 0 L 0.421875 -1.3125 L 1.578125 -1.546875 L 1.578125 -9.390625 L 0.421875 -9.625 L 0.421875 -10.9375 L 9.0625 -10.9375 L 9.0625 -7.9375 L 7.375 -7.9375 L 7.28125 -9.25 L 3.78125 -9.25 L 3.78125 -6.5 L 7.484375 -6.5 Z M 7.484375 -4.8125"></path></g></g></g><g fill-opacity="1" fill="#ffffff"><g transform="translate(196.524427, 230.358855)"><g><path d="M 0.421875 0 L 0.421875 -1.3125 L 1.578125 -1.546875 L 1.578125 -9.390625 L 0.421875 -9.625 L 0.421875 -10.9375 L 4.953125 -10.9375 L 4.953125 -9.625 L 3.78125 -9.390625 L 3.78125 -1.6875 L 6.875 -1.6875 L 6.96875 -3.0625 L 8.65625 -3.0625 L 8.65625 0 Z M 0.421875 0"></path></g></g></g><g fill-opacity="1" fill="#ffffff"><g transform="translate(207.915932, 230.358855)"><g><path d="M 5.328125 -10.9375 C 6.578125 -10.9375 7.550781 -10.648438 8.25 -10.078125 C 8.957031 -9.515625 9.3125 -8.734375 9.3125 -7.734375 C 9.3125 -7.179688 9.164062 -6.703125 8.875 -6.296875 C 8.582031 -5.890625 8.148438 -5.5625 7.578125 -5.3125 C 8.222656 -5.125 8.6875 -4.804688 8.96875 -4.359375 C 9.25 -3.921875 9.390625 -3.375 9.390625 -2.71875 L 9.390625 -2.15625 C 9.390625 -1.914062 9.4375 -1.726562 9.53125 -1.59375 C 9.625 -1.457031 9.785156 -1.378906 10.015625 -1.359375 L 10.28125 -1.328125 L 10.28125 0 L 9.140625 0 C 8.429688 0 7.929688 -0.191406 7.640625 -0.578125 C 7.347656 -0.960938 7.203125 -1.460938 7.203125 -2.078125 L 7.203125 -2.703125 C 7.203125 -3.234375 7.054688 -3.648438 6.765625 -3.953125 C 6.484375 -4.253906 6.085938 -4.410156 5.578125 -4.421875 L 3.78125 -4.421875 L 3.78125 -1.546875 L 4.953125 -1.3125 L 4.953125 0 L 0.421875 0 L 0.421875 -1.3125 L 1.578125 -1.546875 L 1.578125 -9.390625 L 0.421875 -9.625 L 0.421875 -10.9375 Z M 3.78125 -6.109375 L 5.296875 -6.109375 C 5.910156 -6.109375 6.367188 -6.238281 6.671875 -6.5 C 6.972656 -6.769531 7.125 -7.148438 7.125 -7.640625 C 7.125 -8.128906 6.972656 -8.519531 6.671875 -8.8125 C 6.367188 -9.101562 5.921875 -9.25 5.328125 -9.25 L 3.78125 -9.25 Z M 3.78125 -6.109375"></path></g></g></g><g fill-opacity="1" fill="#ffffff"><g transform="translate(220.870857, 230.358855)"><g><path d="M 4.40625 -9.625 L 3.515625 -9.484375 L 5.21875 -5.90625 L 5.265625 -5.90625 L 6.953125 -9.484375 L 6.078125 -9.625 L 6.078125 -10.9375 L 10.21875 -10.9375 L 10.21875 -9.625 L 9.28125 -9.46875 L 6.3125 -3.84375 L 6.3125 -1.546875 L 7.484375 -1.3125 L 7.484375 0 L 2.953125 0 L 2.953125 -1.3125 L 4.125 -1.546875 L 4.125 -3.953125 L 1.1875 -9.46875 L 0.265625 -9.625 L 0.265625 -10.9375 L 4.40625 -10.9375 Z M 4.40625 -9.625"></path></g></g></g><g fill-opacity="1" fill="#ffffff"><g transform="translate(124.760371, 158.826596)"><g><path d="M 4.046875 -2.59375 L 2.046875 -2.59375 L 2.046875 -0.90625 L 3.953125 -0.90625 L 4 -1.609375 L 4.90625 -1.609375 L 4.90625 0 L 0.234375 0 L 0.234375 -0.703125 L 0.859375 -0.828125 L 0.859375 -5.078125 L 0.234375 -5.203125 L 0.234375 -5.90625 L 4.890625 -5.90625 L 4.890625 -4.296875 L 3.984375 -4.296875 L 3.9375 -5 L 2.046875 -5 L 2.046875 -3.515625 L 4.046875 -3.515625 Z M 4.046875 -2.59375"></path></g></g></g><g fill-opacity="1" fill="#ffffff"><g transform="translate(131.352524, 158.826596)"><g><path d="M 4.71875 -4.015625 L 3.828125 -4.015625 L 3.671875 -4.828125 C 3.566406 -4.898438 3.414062 -4.957031 3.21875 -5 C 3.019531 -5.050781 2.8125 -5.078125 2.59375 -5.078125 C 2.269531 -5.078125 2.019531 -5.007812 1.84375 -4.875 C 1.664062 -4.738281 1.578125 -4.5625 1.578125 -4.34375 C 1.578125 -4.144531 1.664062 -3.976562 1.84375 -3.84375 C 2.03125 -3.71875 2.351562 -3.582031 2.8125 -3.4375 C 3.46875 -3.257812 3.960938 -3.019531 4.296875 -2.71875 C 4.628906 -2.425781 4.796875 -2.035156 4.796875 -1.546875 C 4.796875 -1.046875 4.59375 -0.648438 4.1875 -0.359375 C 3.789062 -0.0664062 3.269531 0.078125 2.625 0.078125 C 2.15625 0.078125 1.726562 0.00390625 1.34375 -0.140625 C 0.96875 -0.285156 0.65625 -0.488281 0.40625 -0.75 L 0.40625 -1.984375 L 1.328125 -1.984375 L 1.453125 -1.15625 C 1.566406 -1.050781 1.722656 -0.96875 1.921875 -0.90625 C 2.128906 -0.84375 2.363281 -0.8125 2.625 -0.8125 C 2.945312 -0.8125 3.191406 -0.875 3.359375 -1 C 3.523438 -1.132812 3.609375 -1.316406 3.609375 -1.546875 C 3.609375 -1.773438 3.523438 -1.957031 3.359375 -2.09375 C 3.203125 -2.226562 2.925781 -2.359375 2.53125 -2.484375 C 1.820312 -2.679688 1.285156 -2.921875 0.921875 -3.203125 C 0.566406 -3.484375 0.390625 -3.863281 0.390625 -4.34375 C 0.390625 -4.820312 0.59375 -5.210938 1 -5.515625 C 1.40625 -5.828125 1.914062 -5.984375 2.53125 -5.984375 C 2.988281 -5.984375 3.398438 -5.914062 3.765625 -5.78125 C 4.140625 -5.644531 4.457031 -5.460938 4.71875 -5.234375 Z M 4.71875 -4.015625"></path></g></g></g><g fill-opacity="1" fill="#ffffff"><g transform="translate(137.676669, 158.826596)"><g><path d="M 5.4375 -5.90625 L 5.4375 -4.328125 L 4.515625 -4.328125 L 4.46875 -5 L 3.390625 -5 L 3.390625 -0.828125 L 4.015625 -0.703125 L 4.015625 0 L 1.5625 0 L 1.5625 -0.703125 L 2.203125 -0.828125 L 2.203125 -5 L 1.109375 -5 L 1.0625 -4.328125 L 0.15625 -4.328125 L 0.15625 -5.90625 Z M 5.4375 -5.90625"></path></g></g></g><g fill-opacity="1" fill="#ffffff"><g transform="translate(144.549012, 158.826596)"><g><path d="M 2.890625 -5.90625 C 3.609375 -5.90625 4.203125 -5.675781 4.671875 -5.21875 C 5.140625 -4.757812 5.375 -4.164062 5.375 -3.4375 L 5.375 -2.46875 C 5.375 -1.738281 5.140625 -1.144531 4.671875 -0.6875 C 4.203125 -0.226562 3.609375 0 2.890625 0 L 0.234375 0 L 0.234375 -0.703125 L 0.859375 -0.828125 L 0.859375 -5.078125 L 0.234375 -5.203125 L 0.234375 -5.90625 Z M 2.046875 -5 L 2.046875 -0.90625 L 2.828125 -0.90625 C 3.253906 -0.90625 3.585938 -1.046875 3.828125 -1.328125 C 4.066406 -1.617188 4.1875 -2 4.1875 -2.46875 L 4.1875 -3.453125 C 4.1875 -3.910156 4.066406 -4.28125 3.828125 -4.5625 C 3.585938 -4.851562 3.253906 -5 2.828125 -5 Z M 2.046875 -5"></path></g></g></g><g fill-opacity="1" fill="#ffffff"><g transform="translate(224.712631, 158.826596)"><g><path d="M 0.296875 0 L 0.296875 -0.78125 L 2.203125 -2.828125 C 2.484375 -3.140625 2.679688 -3.40625 2.796875 -3.625 C 2.910156 -3.84375 2.96875 -4.046875 2.96875 -4.234375 C 2.96875 -4.484375 2.898438 -4.6875 2.765625 -4.84375 C 2.628906 -5 2.441406 -5.078125 2.203125 -5.078125 C 1.929688 -5.078125 1.722656 -4.984375 1.578125 -4.796875 C 1.429688 -4.617188 1.359375 -4.375 1.359375 -4.0625 L 0.21875 -4.0625 L 0.203125 -4.09375 C 0.191406 -4.625 0.367188 -5.070312 0.734375 -5.4375 C 1.097656 -5.8125 1.585938 -6 2.203125 -6 C 2.804688 -6 3.28125 -5.835938 3.625 -5.515625 C 3.976562 -5.203125 4.15625 -4.78125 4.15625 -4.25 C 4.15625 -3.894531 4.054688 -3.566406 3.859375 -3.265625 C 3.671875 -2.960938 3.347656 -2.566406 2.890625 -2.078125 L 1.84375 -0.921875 L 1.84375 -0.90625 L 3.375 -0.90625 L 3.4375 -1.5 L 4.328125 -1.5 L 4.328125 0 Z M 0.296875 0"></path></g></g></g><g fill-opacity="1" fill="#ffffff"><g transform="translate(230.590096, 158.826596)"><g><path d="M 4.390625 -2.296875 C 4.390625 -1.515625 4.207031 -0.921875 3.84375 -0.515625 C 3.488281 -0.117188 3.007812 0.078125 2.40625 0.078125 C 1.78125 0.078125 1.285156 -0.117188 0.921875 -0.515625 C 0.566406 -0.921875 0.390625 -1.515625 0.390625 -2.296875 L 0.390625 -3.609375 C 0.390625 -4.378906 0.566406 -4.96875 0.921875 -5.375 C 1.285156 -5.789062 1.773438 -6 2.390625 -6 C 3.003906 -6 3.488281 -5.789062 3.84375 -5.375 C 4.207031 -4.96875 4.390625 -4.378906 4.390625 -3.609375 Z M 3.203125 -3.71875 C 3.203125 -4.1875 3.128906 -4.53125 2.984375 -4.75 C 2.847656 -4.96875 2.648438 -5.078125 2.390625 -5.078125 C 2.117188 -5.078125 1.914062 -4.96875 1.78125 -4.75 C 1.644531 -4.539062 1.578125 -4.195312 1.578125 -3.71875 L 1.578125 -2.1875 C 1.578125 -1.707031 1.644531 -1.359375 1.78125 -1.140625 C 1.925781 -0.929688 2.132812 -0.828125 2.40625 -0.828125 C 2.664062 -0.828125 2.863281 -0.929688 3 -1.140625 C 3.132812 -1.359375 3.203125 -1.707031 3.203125 -2.1875 Z M 3.203125 -3.71875"></path></g></g></g><g fill-opacity="1" fill="#ffffff"><g transform="translate(236.621868, 158.826596)"><g><path d="M 0.296875 0 L 0.296875 -0.78125 L 2.203125 -2.828125 C 2.484375 -3.140625 2.679688 -3.40625 2.796875 -3.625 C 2.910156 -3.84375 2.96875 -4.046875 2.96875 -4.234375 C 2.96875 -4.484375 2.898438 -4.6875 2.765625 -4.84375 C 2.628906 -5 2.441406 -5.078125 2.203125 -5.078125 C 1.929688 -5.078125 1.722656 -4.984375 1.578125 -4.796875 C 1.429688 -4.617188 1.359375 -4.375 1.359375 -4.0625 L 0.21875 -4.0625 L 0.203125 -4.09375 C 0.191406 -4.625 0.367188 -5.070312 0.734375 -5.4375 C 1.097656 -5.8125 1.585938 -6 2.203125 -6 C 2.804688 -6 3.28125 -5.835938 3.625 -5.515625 C 3.976562 -5.203125 4.15625 -4.78125 4.15625 -4.25 C 4.15625 -3.894531 4.054688 -3.566406 3.859375 -3.265625 C 3.671875 -2.960938 3.347656 -2.566406 2.890625 -2.078125 L 1.84375 -0.921875 L 1.84375 -0.90625 L 3.375 -0.90625 L 3.4375 -1.5 L 4.328125 -1.5 L 4.328125 0 Z M 0.296875 0"></path></g></g></g><g fill-opacity="1" fill="#ffffff"><g transform="translate(242.499333, 158.826596)"><g><path d="M 3.390625 -4.5625 L 3.28125 -4.953125 L 1.6875 -4.953125 L 1.515625 -3.59375 C 1.628906 -3.675781 1.765625 -3.742188 1.921875 -3.796875 C 2.078125 -3.847656 2.25 -3.875 2.4375 -3.875 C 3 -3.882812 3.4375 -3.710938 3.75 -3.359375 C 4.0625 -3.015625 4.21875 -2.523438 4.21875 -1.890625 C 4.21875 -1.328125 4.046875 -0.859375 3.703125 -0.484375 C 3.359375 -0.109375 2.863281 0.078125 2.21875 0.078125 C 1.675781 0.078125 1.210938 -0.0664062 0.828125 -0.359375 C 0.441406 -0.648438 0.253906 -1.054688 0.265625 -1.578125 L 0.28125 -1.609375 L 1.421875 -1.65625 C 1.421875 -1.394531 1.492188 -1.191406 1.640625 -1.046875 C 1.785156 -0.898438 1.976562 -0.828125 2.21875 -0.828125 C 2.5 -0.828125 2.703125 -0.925781 2.828125 -1.125 C 2.960938 -1.320312 3.03125 -1.578125 3.03125 -1.890625 C 3.03125 -2.234375 2.957031 -2.503906 2.8125 -2.703125 C 2.675781 -2.910156 2.472656 -3.015625 2.203125 -3.015625 C 1.972656 -3.015625 1.796875 -2.972656 1.671875 -2.890625 C 1.554688 -2.804688 1.472656 -2.691406 1.421875 -2.546875 L 0.375 -2.625 L 0.71875 -5.90625 L 4.109375 -5.90625 L 4.109375 -4.5625 Z M 3.390625 -4.5625"></path></g></g></g></svg>